<svg width="43" height="43" viewBox="0 0 43 43" fill="none" xmlns="http://www.w3.org/2000/svg">
<path d="M18.7851 32.5348L20.467 28.6818C21.9641 25.2531 24.6583 22.5236 28.0192 21.0317L32.649 18.9763C34.1209 18.3229 34.1209 16.1813 32.649 15.5279L28.1637 13.5367C24.7164 12.0063 21.9738 9.17583 20.5025 5.6301L18.7987 1.52403C18.1664 0.000287705 16.0612 0.00029159 15.429 1.52403L13.7251 5.63007C12.2538 9.17583 9.51112 12.0063 6.06386 13.5367L1.57861 15.5279C0.106612 16.1813 0.10661 18.3229 1.57861 18.9763L6.20846 21.0317C9.56931 22.5236 12.2636 25.2531 13.7605 28.6818L15.4426 32.5348C16.0892 34.0157 18.1384 34.0157 18.7851 32.5348ZM35.6258 41.9159L36.0988 40.8316C36.9421 38.8984 38.461 37.3591 40.3561 36.517L41.8134 35.8694C42.6017 35.5192 42.6017 34.3735 41.8134 34.0234L40.4377 33.4119C38.4937 32.5482 36.9477 30.952 36.1188 28.953L35.6331 27.7813C35.2944 26.9647 34.1656 26.9647 33.8269 27.7813L33.3413 28.953C32.5126 30.952 30.9665 32.5482 29.0225 33.4119L27.6466 34.0234C26.8585 34.3735 26.8585 35.5192 27.6466 35.8694L29.104 36.517C30.9993 37.3591 32.5179 38.8984 33.3612 40.8316L33.8344 41.9159C34.1805 42.7097 35.2795 42.7097 35.6258 41.9159Z" fill="white"/>
</svg>
