<svg width="33" height="32" viewBox="0 0 33 32" fill="none" xmlns="http://www.w3.org/2000/svg">
<g id="destaque">
<path id="Vector" d="M14.4741 24.4224C13.9806 25.5472 12.4167 25.5472 11.9232 24.4224L10.6395 21.4958C9.49711 18.8915 7.44086 16.8184 4.87594 15.6851L1.34254 14.124C0.219151 13.6277 0.219153 12.001 1.34254 11.5047L4.76558 9.99227C7.39646 8.82988 9.48959 6.67998 10.6125 3.98678L11.9128 0.868024C12.3954 -0.28934 14.002 -0.289343 14.4845 0.868024L15.7848 3.98681C16.9077 6.67998 19.0008 8.82988 21.6317 9.99227L25.0548 11.5047C26.1781 12.001 26.1781 13.6277 25.0548 14.124L21.5214 15.6851C18.9565 16.8184 16.9002 18.8915 15.7578 21.4958L14.4741 24.4224ZM5.58864 12.8143C8.93207 14.2915 11.6506 16.7197 13.1986 20.0606C14.7468 16.7197 17.4653 14.2915 20.8086 12.8143C17.4253 11.3195 14.6982 8.77303 13.1987 5.37271C11.6991 8.77304 8.97195 11.3195 5.58864 12.8143ZM27.3266 31.5478L27.6876 30.7243C28.3311 29.2559 29.4903 28.0867 30.9366 27.4471L32.0488 26.9552C32.6504 26.6892 32.6504 25.819 32.0488 25.553L30.9989 25.0886C29.5153 24.4326 28.3354 23.2201 27.7028 21.7018L27.3321 20.8118C27.0737 20.1916 26.2122 20.1916 25.9537 20.8118L25.5831 21.7018C24.9506 23.2201 23.7707 24.4326 22.2871 25.0886L21.2371 25.553C20.6356 25.819 20.6356 26.6892 21.2371 26.9552L22.3493 27.4471C23.7957 28.0867 24.9547 29.2559 25.5983 30.7243L25.9594 31.5478C26.2236 32.1507 27.0623 32.1507 27.3266 31.5478ZM25.8246 26.2441L26.6473 25.4309L27.453 26.2441L26.6473 27.0345L25.8246 26.2441Z" fill="white"/>
</g>
</svg>
