<svg width="33" height="33" viewBox="0 0 33 33" fill="none" xmlns="http://www.w3.org/2000/svg">
<g id="lixeira">
<path id="lixeira_2" d="M24.75 6.6H33V9.9H29.7V31.35C29.7 32.2613 28.9613 33 28.05 33H4.95C4.03874 33 3.3 32.2613 3.3 31.35V9.9H0V6.6H8.25V1.65C8.25 0.738738 8.98874 0 9.9 0H23.1C24.0113 0 24.75 0.738738 24.75 1.65V6.6ZM26.4 9.9H6.6V29.7H26.4V9.9ZM18.8334 19.7995L21.7503 22.7164L19.4169 25.0498L16.5 22.1329L13.5831 25.0498L11.2497 22.7164L14.1666 19.7995L11.2497 16.8828L13.5831 14.5494L16.5 17.4661L19.4169 14.5494L21.7503 16.8828L18.8334 19.7995ZM11.55 3.3V6.6H21.45V3.3H11.55Z" fill="white"/>
</g>
</svg>
