<svg width="26" height="23" viewBox="0 0 26 23" fill="none" xmlns="http://www.w3.org/2000/svg">
<path d="M7.22222 0.680473H26V3.40237H7.22222V0.680473ZM2.16667 4.08284C0.970046 4.08284 0 3.16887 0 2.04142C0 0.913971 0.970046 0 2.16667 0C3.36329 0 4.33333 0.913971 4.33333 2.04142C4.33333 3.16887 3.36329 4.08284 2.16667 4.08284ZM2.16667 13.6095C0.970046 13.6095 0 12.6955 0 11.568C0 10.4406 0.970046 9.52663 2.16667 9.52663C3.36329 9.52663 4.33333 10.4406 4.33333 11.568C4.33333 12.6955 3.36329 13.6095 2.16667 13.6095ZM2.16667 23C0.970046 23 0 22.086 0 20.9586C0 19.8312 0.970046 18.9172 2.16667 18.9172C3.36329 18.9172 4.33333 19.8312 4.33333 20.9586C4.33333 22.086 3.36329 23 2.16667 23ZM7.22222 10.2071H26V12.929H7.22222V10.2071ZM7.22222 19.7337H26V22.4556H7.22222V19.7337Z" fill="#949494"/>
</svg>
