<svg width="26" height="23" viewBox="0 0 26 23" fill="none" xmlns="http://www.w3.org/2000/svg">
<path d="M2.5679 0.5V10.125H11.5556V0.5H14.1235V22.5H11.5556V12.875H2.5679V22.5H0V0.5H2.5679ZM21.1852 6C23.8444 6 26 8.30853 26 11.1562C26 12.3352 25.6306 13.4217 25.0089 14.2901L24.819 14.539L20.5872 19.75H25.679V22.5H16.6914L16.6905 20.3605L22.8809 12.7349C23.2242 12.3124 23.4321 11.7603 23.4321 11.1562C23.4321 9.82731 22.4261 8.75 21.1852 8.75C20.0063 8.75 19.0394 9.72226 18.9457 10.9589L18.9383 11.1562H16.3704C16.3704 8.30853 18.526 6 21.1852 6Z" fill="#949494"/>
</svg>
