<svg width="27" height="25" viewBox="0 0 27 25" fill="none" xmlns="http://www.w3.org/2000/svg">
<path d="M21.2307 15.625C21.5769 16.4314 21.75 17.327 21.75 18.3119C21.75 20.4102 20.9643 22.0494 19.3929 23.2297C17.8214 24.4098 15.6502 25 12.8793 25C10.4201 25 7.98502 24.4039 5.57388 23.2117V19.6889C7.85307 21.0598 10.1862 21.7453 12.5733 21.7453C16.4 21.7453 18.3192 20.6009 18.3312 18.3119C18.3312 17.3342 18.0074 16.4997 17.3596 15.8083C17.3008 15.7456 17.2409 15.6845 17.1796 15.625H0V12.5H27V15.625H21.2307ZM15.114 10.9375H6.94362C6.6849 10.6927 6.44424 10.4206 6.22164 10.1216C5.57388 9.25131 5.25 8.19623 5.25 6.95636C5.25 5.02503 5.94875 3.38281 7.34624 2.02969C8.74374 0.676547 10.9059 0 13.8328 0C16.0401 0 18.1514 0.512625 20.1666 1.53791V4.89986C18.3672 3.82689 16.3939 3.29042 14.2467 3.29042C10.528 3.29042 8.66875 4.51239 8.66875 6.95636C8.66875 7.61206 8.99564 8.18431 9.64939 8.67311C10.3032 9.16191 11.1099 9.55234 12.0695 9.84437C12.9998 10.1275 14.0147 10.4919 15.114 10.9375Z" fill="#949494"/>
</svg>
