<svg width="26" height="23" viewBox="0 0 26 23" fill="none" xmlns="http://www.w3.org/2000/svg">
<path d="M25.679 5.91538L25.677 8.62308L22.4607 12.5262C24.5007 13.1157 26 15.0847 26 17.4231C26 20.227 23.8444 22.5 21.1852 22.5C18.8407 22.5 16.8875 20.7331 16.4582 18.3932L18.9795 17.8769C19.1802 18.9682 20.0914 19.7923 21.1852 19.7923C22.4261 19.7923 23.4321 18.7316 23.4321 17.4231C23.4321 16.1146 22.4261 15.0538 21.1852 15.0538C20.818 15.0538 20.4713 15.1467 20.1652 15.3115L18.4879 13.2169L22.2745 8.62308H16.6914V5.91538H25.679ZM2.5679 0.5V9.97692H11.5556V0.5H14.1235V22.1615H11.5556V12.6846H2.5679V22.1615H0V0.5H2.5679Z" fill="#949494"/>
</svg>
