<svg width="26" height="23" viewBox="0 0 26 23" fill="none" xmlns="http://www.w3.org/2000/svg">
<path d="M4.12448 0H2.64279L0.537931 0.548055V2.71235L1.97244 2.33878L1.97267 6.9697H0.17931V9.06061H5.91724V6.9697H4.12448V0ZM10.2207 0.69697H26V3.48485H10.2207V0.69697ZM10.2207 10.4545H26V13.2424H10.2207V10.4545ZM10.2207 20.2121H26V23H10.2207V20.2121ZM0 16.9015C0 15.2656 1.36475 13.9394 3.04828 13.9394C4.7318 13.9394 6.09655 15.2656 6.09655 16.9015C6.09655 17.5784 5.86249 18.203 5.46892 18.7021L5.46209 18.7107L3.50139 20.9091H5.91724V23H0.179482L0.178722 21.4368L3.72492 17.473C3.86206 17.32 3.94483 17.1205 3.94483 16.9015C3.94483 16.4203 3.54343 16.0303 3.04828 16.0303C2.58032 16.0303 2.19581 16.3789 2.15527 16.8232L2.13752 17.25H0V16.9015Z" fill="#949494"/>
</svg>
