<svg width="30" height="28" viewBox="0 0 30 28" fill="none" xmlns="http://www.w3.org/2000/svg">
<path d="M25.9091 16.7V20.75H30V23.45H25.9091V27.5H23.1818V23.45H19.0909V20.75H23.1818V16.7H25.9091ZM25.9203 0.5C26.6673 0.5 27.2727 1.10068 27.2727 1.84109V14H24.5455V3.2H2.72727V22.0987L16.3636 8.6L20.4545 12.65V16.4692L16.3636 12.4183L6.58227 22.1H16.3636V24.8H1.35245C0.605523 24.8 0 24.1994 0 23.4589V1.84109C0 1.10043 0.620877 0.5 1.35245 0.5H25.9203ZM8.18182 5.9C9.68805 5.9 10.9091 7.10883 10.9091 8.6C10.9091 10.0912 9.68805 11.3 8.18182 11.3C6.67559 11.3 5.45455 10.0912 5.45455 8.6C5.45455 7.10883 6.67559 5.9 8.18182 5.9Z" fill="#949494"/>
</svg>
