<svg width="28" height="29" viewBox="0 0 28 29" fill="none" xmlns="http://www.w3.org/2000/svg">
<path d="M23.0652 19.5361L21.0506 17.5216L23.0652 15.5072C25.8465 12.7258 25.8465 8.21629 23.0652 5.43491C20.2837 2.65352 15.7742 2.65352 12.9928 5.43491L10.9783 7.44938L8.96386 5.43491L10.9783 3.42046C14.8723 -0.473485 21.1856 -0.473485 25.0796 3.42046C28.9735 7.3144 28.9735 13.6278 25.0796 17.5216L23.0652 19.5361ZM19.0361 23.5651L17.0217 25.5795C13.1278 29.4735 6.81442 29.4735 2.92047 25.5795C-0.973489 21.6855 -0.973489 15.3723 2.92047 11.4783L4.93493 9.46383L6.94939 11.4783L4.93493 13.4927C2.15353 16.2741 2.15353 20.7837 4.93493 23.5651C7.71632 26.3464 12.2259 26.3464 15.0072 23.5651L17.0217 21.5506L19.0361 23.5651ZM18.0289 8.4566L20.0434 10.4711L9.97108 20.5434L7.95662 18.5288L18.0289 8.4566Z" fill="#949494"/>
</svg>
