<svg width="32" height="32" viewBox="0 0 32 32" fill="none" xmlns="http://www.w3.org/2000/svg">
<g id="Frame">
<path id="Vector" d="M17.4936 22.697L11.895 19.6432C10.9218 20.6833 9.53677 21.3333 7.99996 21.3333C5.05444 21.3333 2.66663 18.9454 2.66663 16C2.66663 13.0544 5.05444 10.6666 7.99996 10.6666C9.53669 10.6666 10.9216 11.3166 11.8949 12.3566L17.4936 9.3028C17.3889 8.88584 17.3333 8.44939 17.3333 7.99996C17.3333 5.05444 19.7212 2.66663 22.6666 2.66663C25.6121 2.66663 28 5.05444 28 7.99996C28 10.9455 25.6121 13.3333 22.6666 13.3333C21.1298 13.3333 19.7449 12.6833 18.7716 11.6432L13.173 14.697C13.2777 15.114 13.3333 15.5505 13.3333 16C13.3333 16.4494 13.2777 16.8858 13.173 17.3028L18.7717 20.3566C19.7449 19.3166 21.1298 18.6666 22.6666 18.6666C25.6121 18.6666 28 21.0545 28 24C28 26.9454 25.6121 29.3333 22.6666 29.3333C19.7212 29.3333 17.3333 26.9454 17.3333 24C17.3333 23.5505 17.3889 23.114 17.4936 22.697ZM7.99996 18.6666C9.47272 18.6666 10.6666 17.4728 10.6666 16C10.6666 14.5272 9.47272 13.3333 7.99996 13.3333C6.5272 13.3333 5.33329 14.5272 5.33329 16C5.33329 17.4728 6.5272 18.6666 7.99996 18.6666ZM22.6666 10.6666C24.1394 10.6666 25.3333 9.47272 25.3333 7.99996C25.3333 6.5272 24.1394 5.33329 22.6666 5.33329C21.1938 5.33329 20 6.5272 20 7.99996C20 9.47272 21.1938 10.6666 22.6666 10.6666ZM22.6666 26.6666C24.1394 26.6666 25.3333 25.4728 25.3333 24C25.3333 22.5272 24.1394 21.3333 22.6666 21.3333C21.1938 21.3333 20 22.5272 20 24C20 25.4728 21.1938 26.6666 22.6666 26.6666Z" fill="black"/>
</g>
</svg>
