<svg width="36" height="36" viewBox="0 0 36 36" fill="none" xmlns="http://www.w3.org/2000/svg">
<path d="M22.9091 9.81818C22.9091 17.0481 17.0481 22.9091 9.81818 22.9091C7.46411 22.9091 5.25518 22.2878 3.34653 21.2001C4.13378 29.504 11.1265 36 19.6364 36C28.6738 36 36 28.6737 36 19.6364C36 11.1264 29.504 4.13372 21.2001 3.34648C22.2878 5.25521 22.9091 7.46414 22.9091 9.81818ZM32.7273 19.6364C32.7273 26.8663 26.8663 32.7273 19.6364 32.7273C14.7839 32.7273 10.5125 30.0744 8.25202 26.1075C8.76976 26.1569 9.29226 26.1818 9.81818 26.1818C18.8555 26.1818 26.1818 18.8555 26.1818 9.81818C26.1818 9.2923 26.1569 8.76981 26.1076 8.25207C30.0744 10.5124 32.7273 14.7839 32.7273 19.6364ZM9.54949 3.74897L8.18182 4.09091V5.72727L9.54949 6.06921C10.7221 6.36235 11.6377 7.27789 11.9307 8.45046L12.2727 9.81818H13.9091L14.2511 8.45046C14.5442 7.27789 15.4597 6.36235 16.6323 6.06921L18 5.72727V4.09091L16.6323 3.74897C15.4597 3.45584 14.5442 2.54029 14.2511 1.36772L13.9091 0H12.2727L11.9307 1.36772C11.6377 2.54029 10.7221 3.45584 9.54949 3.74897ZM1.36767 11.9308L0 12.2727V13.9091L1.36767 14.251C2.54029 14.5442 3.45584 15.4597 3.74891 16.6323L4.09091 18H5.72727L6.06927 16.6323C6.36234 15.4597 7.27789 14.5442 8.45051 14.251L9.81818 13.9091V12.2727L8.45051 11.9308C7.27789 11.6377 6.36234 10.7221 6.06927 9.54954L5.72727 8.18182H4.09091L3.74891 9.54954C3.45584 10.7221 2.54029 11.6377 1.36767 11.9308Z" fill="#949494"/>
</svg>
