<svg width="61" height="60" viewBox="0 0 61 60" fill="none" xmlns="http://www.w3.org/2000/svg">
<g id="Group 120">
<g id="Group 122">
<rect id="Rectangle 55" width="61" height="60" rx="8" fill="white"/>
<path id="Vector" d="M33.3 48.2576C42.3765 47.1258 49.4 39.3831 49.4 30C49.4 19.838 41.1621 11.6 31 11.6C20.8379 11.6 12.6 19.838 12.6 30C12.6 39.3831 19.6235 47.1258 28.7 48.2576V34.6H24.1V30H28.7V26.1953C28.7 23.1197 29.0202 22.0043 29.6216 20.8799C30.2229 19.7554 31.1054 18.873 32.2298 18.2716C33.11 17.8009 34.2018 17.5168 36.1099 17.3949C36.8671 17.3466 37.8474 17.4083 39.05 17.58V21.95H37.9C35.7902 21.95 34.9197 22.0496 34.3992 22.328C34.0765 22.5006 33.8506 22.7264 33.6779 23.0492C33.3996 23.5696 33.3 24.0856 33.3 26.1953V30H39.05L37.9 34.6H33.3V48.2576ZM31 53C18.2974 53 8 42.7024 8 30C8 17.2974 18.2974 7 31 7C43.7025 7 54 17.2974 54 30C54 42.7024 43.7025 53 31 53Z" fill="#021A00"/>
</g>
</g>
</svg>
