<svg width="35" height="35" viewBox="0 0 35 35" fill="none" xmlns="http://www.w3.org/2000/svg">
<path d="M17.5 35C7.83501 35 0 27.1649 0 17.5C0 7.835 7.83501 0 17.5 0C27.1649 0 35 7.835 35 17.5C35 27.1649 27.1649 35 17.5 35ZM17.5 31.5C25.232 31.5 31.5 25.232 31.5 17.5C31.5 9.768 25.232 3.5 17.5 3.5C9.76801 3.5 3.5 9.768 3.5 17.5C3.5 25.232 9.76801 31.5 17.5 31.5ZM8.75061 23.3086C12.3899 23.0438 15.9548 21.5201 18.7374 18.7374C21.5201 15.9548 23.0438 12.3899 23.3088 8.75062C23.8794 9.13041 24.4212 9.57198 24.9245 10.0754C29.0251 14.1759 29.0251 20.8241 24.9245 24.9246C20.8241 29.0252 14.1759 29.0252 10.0754 24.9246C9.57199 24.4213 9.13041 23.8795 8.75061 23.3086Z" fill="#949494"/>
</svg>
