<svg width="37" height="33" viewBox="0 0 37 33" fill="none" xmlns="http://www.w3.org/2000/svg">
<path d="M8.33333 29.4142H28.3333V13.01L18.3333 3.91909L8.33333 13.01V29.4142ZM30 32.7476H6.66667C5.7462 32.7476 5 32.0014 5 31.0809V16.0809H0L17.2122 0.433425C17.8478 -0.144475 18.8188 -0.144475 19.4545 0.433425L36.6667 16.0809H31.6667V31.0809C31.6667 32.0014 30.9205 32.7476 30 32.7476ZM10.8333 19.4142H14.1667C14.1667 21.7154 16.0322 23.5809 18.3333 23.5809C20.6345 23.5809 22.5 21.7154 22.5 19.4142H25.8333C25.8333 23.5564 22.4755 26.9142 18.3333 26.9142C14.1912 26.9142 10.8333 23.5564 10.8333 19.4142Z" fill="#949494"/>
</svg>
