<svg width="117" height="117" viewBox="0 0 117 117" fill="none" xmlns="http://www.w3.org/2000/svg">
<path d="M52.7083 52.7084V29.5417H64.2916V52.7084H87.4583V64.2917H64.2916V87.4584H52.7083V64.2917H29.5416V52.7084H52.7083ZM58.4999 116.417C26.5134 116.417 0.583252 90.4863 0.583252 58.5C0.583252 26.5135 26.5134 0.583374 58.4999 0.583374C90.4861 0.583374 116.417 26.5135 116.417 58.5C116.417 90.4863 90.4861 116.417 58.4999 116.417ZM58.4999 104.833C84.0892 104.833 104.833 84.0894 104.833 58.5C104.833 32.9108 84.0892 12.1667 58.4999 12.1667C32.9107 12.1667 12.1666 32.9108 12.1666 58.5C12.1666 84.0894 32.9107 104.833 58.4999 104.833Z" fill="#47C07A"/>
</svg>
