<svg width="73" height="73" viewBox="0 0 73 73" fill="none" xmlns="http://www.w3.org/2000/svg">
<path d="M12.1665 66.9166C12.1665 53.4776 23.0609 42.5833 36.4998 42.5833C49.9388 42.5833 60.8332 53.4776 60.8332 66.9166H54.7498C54.7498 56.8375 46.579 48.6666 36.4998 48.6666C26.4206 48.6666 18.2498 56.8375 18.2498 66.9166H12.1665ZM36.4998 39.5416C26.4167 39.5416 18.2498 31.3748 18.2498 21.2916C18.2498 11.2085 26.4167 3.04163 36.4998 3.04163C46.583 3.04163 54.7498 11.2085 54.7498 21.2916C54.7498 31.3748 46.583 39.5416 36.4998 39.5416ZM36.4998 33.4583C43.2219 33.4583 48.6665 28.0137 48.6665 21.2916C48.6665 14.5695 43.2219 9.12496 36.4998 9.12496C29.7778 9.12496 24.3332 14.5695 24.3332 21.2916C24.3332 28.0137 29.7778 33.4583 36.4998 33.4583Z" fill="#00BF62"/>
</svg>
