<svg width="25" height="26" viewBox="0 0 25 26" fill="none" xmlns="http://www.w3.org/2000/svg">
<path d="M11.0763 0.5C17.1904 0.5 22.1525 5.46217 22.1525 11.5763C22.1525 17.6904 17.1904 22.6525 11.0763 22.6525C4.96217 22.6525 0 17.6904 0 11.5763C0 5.46217 4.96217 0.5 11.0763 0.5ZM11.0763 20.1911C15.836 20.1911 19.6911 16.336 19.6911 11.5763C19.6911 6.81655 15.836 2.96139 11.0763 2.96139C6.31655 2.96139 2.46139 6.81655 2.46139 11.5763C2.46139 16.336 6.31655 20.1911 11.0763 20.1911ZM21.5191 20.2786L25 23.7596L23.2596 25.5L19.7786 22.0191L21.5191 20.2786Z" fill="#949494"/>
</svg>
