<svg width="61" height="60" viewBox="0 0 61 60" fill="none" xmlns="http://www.w3.org/2000/svg">
<g id="Group 123">
<rect id="Rectangle 55" width="61" height="60" rx="8" fill="white"/>
<path id="Vector" d="M30.5 23.25C26.7709 23.25 23.75 26.272 23.75 30C23.75 33.7289 26.772 36.75 30.5 36.75C34.229 36.75 37.25 33.728 37.25 30C37.25 26.2711 34.2281 23.25 30.5 23.25ZM30.5 18.75C36.711 18.75 41.75 23.7835 41.75 30C41.75 36.2111 36.7166 41.25 30.5 41.25C24.2889 41.25 19.25 36.2165 19.25 30C19.25 23.7889 24.2835 18.75 30.5 18.75ZM45.125 18.1856C45.125 19.7383 43.8632 20.9981 42.3125 20.9981C40.7598 20.9981 39.5 19.7364 39.5 18.1856C39.5 16.6348 40.7616 15.375 42.3125 15.375C43.8612 15.373 45.125 16.6348 45.125 18.1856ZM30.5 12C24.9324 12 24.025 12.0147 21.4354 12.13C19.6711 12.2129 18.4885 12.4502 17.3897 12.8768C16.4132 13.2555 15.7087 13.7077 14.9582 14.4582C14.2048 15.2116 13.7534 15.9142 13.3762 16.8911C12.9486 17.9925 12.7114 19.1732 12.6301 20.9351C12.5136 23.4192 12.5 24.2874 12.5 30C12.5 35.5676 12.5147 36.4751 12.63 39.0644C12.7129 40.8279 12.9505 42.0123 13.3761 43.1085C13.7558 44.0863 14.2089 44.7924 14.9558 45.5394C15.7122 46.2947 16.4168 46.7477 17.3845 47.1212C18.4967 47.5511 19.6786 47.7887 21.4351 47.8699C23.9192 47.9863 24.7874 48 30.5 48C36.0677 48 36.9751 47.9851 39.5644 47.8699C41.3241 47.7874 42.5094 47.5491 43.6085 47.1238C44.5837 46.7452 45.292 46.2905 46.0394 45.5441C46.7959 44.7866 47.2479 44.0837 47.6219 43.1137C48.0507 42.0056 48.2888 40.8221 48.37 39.065C48.4863 36.5808 48.5 35.7125 48.5 30C48.5 24.4324 48.4852 23.525 48.37 20.9356C48.2872 19.1754 48.0489 17.9884 47.6232 16.8897C47.2454 15.9159 46.7916 15.2093 46.0417 14.4582C45.287 13.7036 44.5864 13.2531 43.6088 12.8762C42.5083 12.449 41.3257 12.2114 39.5648 12.1301C37.0808 12.0136 36.2126 12 30.5 12ZM30.5 7.5C36.6124 7.5 37.3756 7.5225 39.7757 7.635C42.1699 7.74563 43.8032 8.12438 45.2375 8.68125C46.7205 9.25313 47.9731 10.0256 49.2236 11.2762C50.4724 12.5269 51.245 13.7831 51.8188 15.2625C52.3736 16.695 52.7525 18.33 52.865 20.7244C52.9719 23.1244 53 23.8875 53 30C53 36.1126 52.9776 36.8755 52.865 39.2756C52.7543 41.6701 52.3736 43.3031 51.8188 44.7375C51.2468 46.2207 50.4724 47.473 49.2236 48.7238C47.9731 49.9726 46.7149 50.745 45.2375 51.3188C43.8032 51.8738 42.1699 52.2525 39.7757 52.365C37.3756 52.4719 36.6124 52.5 30.5 52.5C24.3875 52.5 23.6244 52.4775 21.2244 52.365C18.83 52.2543 17.1987 51.8738 15.7625 51.3188C14.2812 50.7468 13.0269 49.9726 11.7762 48.7238C10.5256 47.473 9.755 46.2151 9.18125 44.7375C8.62438 43.3031 8.2475 41.6701 8.135 39.2756C8.02813 36.8755 8 36.1126 8 30C8 23.8875 8.0225 23.1244 8.135 20.7244C8.24561 18.3281 8.62438 16.6969 9.18125 15.2625C9.75311 13.7813 10.5256 12.5269 11.7762 11.2762C13.0269 10.0256 14.2831 9.255 15.7625 8.68125C17.1969 8.12438 18.8281 7.7475 21.2244 7.635C23.6244 7.52812 24.3875 7.5 30.5 7.5Z" fill="#021A00"/>
</g>
</svg>
