<svg width="88" height="49" viewBox="0 0 88 49" fill="none" xmlns="http://www.w3.org/2000/svg">
<path fill-rule="evenodd" clip-rule="evenodd" d="M88 0H0V36H31.3226L41.2211 48.6474L50.3628 36H88V0Z" fill="#00BF62"/>
<path d="M10.7183 10.7845V25H7.2555V10.7845H10.7183ZM22.4819 10.7845V13.5588H16.6904V16.5557H21.0239V19.249H16.6904V25H13.2277V10.7845H22.4819ZM37.0189 25H33.5561L27.7646 16.2317V25H24.3019V10.7845H27.7646L33.5561 19.5932V10.7845H37.0189V25ZM42.9917 13.5588V16.4342H47.6289V19.1072H42.9917V22.2257H48.2364V25H39.5289V10.7845H48.2364V13.5588H42.9917ZM70.046 10.7845L66.3403 25H62.1485L59.8805 15.6445L57.5315 25H53.3398L49.7353 10.7845H53.441L55.4863 21.1322L58.0175 10.7845H61.8245L64.2545 21.1322L66.32 10.7845H70.046ZM76.9261 25.1418C75.8866 25.1418 74.9551 24.973 74.1316 24.6355C73.3081 24.298 72.6466 23.7985 72.1471 23.137C71.6611 22.4755 71.4046 21.679 71.3776 20.7475H75.0631C75.1171 21.274 75.2993 21.679 75.6098 21.9625C75.9203 22.2325 76.3253 22.3675 76.8249 22.3675C77.3378 22.3675 77.7428 22.2527 78.0399 22.0233C78.3368 21.7802 78.4853 21.4495 78.4853 21.031C78.4853 20.68 78.3638 20.3897 78.1209 20.1602C77.8913 19.9307 77.6011 19.7417 77.2501 19.5932C76.9126 19.4447 76.4266 19.276 75.7921 19.087C74.8741 18.8035 74.1248 18.52 73.5443 18.2365C72.9638 17.953 72.4643 17.5345 72.0458 16.981C71.6273 16.4275 71.4181 15.7052 71.4181 14.8142C71.4181 13.4912 71.8973 12.4585 72.8558 11.716C73.8143 10.96 75.0631 10.582 76.6021 10.582C78.1681 10.582 79.4303 10.96 80.3888 11.716C81.3474 12.4585 81.8604 13.498 81.9279 14.8345H78.1816C78.1546 14.3755 77.9858 14.0177 77.6753 13.7612C77.3648 13.4912 76.9666 13.3562 76.4806 13.3562C76.0621 13.3562 75.7246 13.471 75.4681 13.7005C75.2116 13.9165 75.0833 14.2337 75.0833 14.6522C75.0833 15.1112 75.2993 15.469 75.7313 15.7255C76.1633 15.982 76.8383 16.2587 77.7564 16.5557C78.6743 16.8662 79.4168 17.1632 79.9838 17.4467C80.5644 17.7302 81.0639 18.142 81.4823 18.682C81.9009 19.222 82.1101 19.9172 82.1101 20.7677C82.1101 21.5777 81.9009 22.3135 81.4823 22.975C81.0774 23.6365 80.4834 24.163 79.7003 24.5545C78.9173 24.946 77.9926 25.1418 76.9261 25.1418Z" fill="white"/>
</svg>
