<svg width="28" height="28" viewBox="0 0 28 28" fill="none" xmlns="http://www.w3.org/2000/svg">
<g id="Frame">
<path id="Vector" d="M9.05913 22.4292C9.74646 22.1261 10.5173 22.0692 11.2387 22.2672C12.1371 22.5124 13.0643 22.6356 14.0012 22.6334C19.3504 22.6334 23.3345 18.7991 23.3345 13.65C23.3345 8.50097 19.3504 4.66671 14.0012 4.66671C8.65182 4.66671 4.66781 8.50097 4.66781 13.65C4.66781 16.2983 5.7126 18.6343 7.5443 20.2725C8.21543 20.8662 8.61292 21.7096 8.64383 22.6126L9.05913 22.4292ZM14.0012 2.33337C20.5736 2.33337 25.6678 7.14762 25.6678 13.65C25.6678 20.1525 20.5736 24.9667 14.0012 24.9667C12.8605 24.9694 11.7246 24.8185 10.6242 24.5181C10.4172 24.4613 10.197 24.4776 10.0006 24.5642L7.68539 25.5862C7.40131 25.7117 7.07339 25.6877 6.81062 25.5222C6.54784 25.3566 6.38463 25.0712 6.37522 24.7608L6.31164 22.6853C6.30299 22.43 6.18971 22.1896 5.99839 22.0203C3.72864 19.9903 2.33447 17.0515 2.33447 13.65C2.33447 7.14762 7.42872 2.33337 14.0012 2.33337ZM6.99531 16.9593L10.4224 11.5226C10.683 11.1092 11.1047 10.8235 11.5854 10.7349C12.066 10.6462 12.5618 10.7627 12.9529 11.056L15.6788 13.0976C15.9283 13.2858 16.2722 13.2858 16.5217 13.0976L20.2032 10.3035C20.6943 9.93071 21.336 10.5187 21.007 11.0408L17.5799 16.4775C17.3193 16.8909 16.8975 17.1765 16.4169 17.2652C15.9362 17.3539 15.4404 17.2374 15.0494 16.9441L12.3235 14.9025C12.0739 14.7143 11.73 14.7143 11.4806 14.9025L7.79914 17.6966C7.30797 18.0694 6.66631 17.4814 6.99531 16.9593Z" fill="white"/>
</g>
</svg>
