<svg width="37" height="37" viewBox="0 0 37 37" fill="none" xmlns="http://www.w3.org/2000/svg">
<g id="Frame">
<path id="Vector" d="M23.6644 8.55599C21.2258 8.55599 19.2378 10.5109 19.1943 12.9444L19.151 15.3726C19.1419 15.8834 18.7204 16.2901 18.2097 16.281C18.1733 16.2804 18.1371 16.2776 18.1011 16.2726L15.6949 15.9444C12.5291 15.5128 9.49483 14.0556 6.58399 11.6302C5.66212 16.7325 7.46163 20.2683 11.799 22.9951L14.4923 24.6883C14.9248 24.9602 15.055 25.5313 14.7831 25.9637C14.7207 26.0628 14.6402 26.1492 14.5457 26.2182L12.0918 28.0111C13.5508 28.1028 14.9378 28.0388 16.0873 27.8094C23.3602 26.3579 28.1966 20.8847 28.1966 11.8568C28.1966 11.1197 26.636 8.55599 23.6644 8.55599ZM16.1115 12.8894C16.1848 8.78075 19.5383 5.47266 23.6644 5.47266C25.7661 5.47266 27.6675 6.33103 29.0369 7.71632C30.1337 7.70807 31.0667 7.98536 33.1512 6.72084C32.636 9.24974 32.3802 10.3474 31.2799 11.8568C31.2799 23.6375 24.0386 29.3668 16.6907 30.8331C11.653 31.8384 4.32659 30.1877 2.22815 27.9942C3.29719 27.9121 7.64552 27.4445 10.1579 25.6054C8.03195 24.2017 -0.429593 19.2214 5.1302 5.83706C7.74096 8.88441 10.3877 10.9587 13.0703 12.0599C14.8547 12.7924 15.293 12.7778 16.1115 12.8894Z" fill="white"/>
</g>
</svg>
