<svg width="37" height="37" viewBox="0 0 37 37" fill="none" xmlns="http://www.w3.org/2000/svg">
<g id="Frame">
<path id="Vector" d="M11.1826 28.5122L12.2999 29.1637C14.1665 30.2522 16.2879 30.8334 18.5015 30.8334C25.3131 30.8334 30.8349 25.3116 30.8349 18.5C30.8349 11.6885 25.3131 6.16671 18.5015 6.16671C11.69 6.16671 6.16817 11.6885 6.16817 18.5C6.16817 20.7143 6.74974 22.8364 7.83885 24.7034L8.49001 25.8196L7.48255 29.522L11.1826 28.5122ZM3.09128 33.9167L5.17555 26.2569C3.84636 23.9785 3.08484 21.3282 3.08484 18.5C3.08484 9.98565 9.98711 3.08337 18.5015 3.08337C27.0159 3.08337 33.9182 9.98565 33.9182 18.5C33.9182 27.0144 27.0159 33.9167 18.5015 33.9167C15.6743 33.9167 13.0248 33.1557 10.7467 31.8273L3.09128 33.9167ZM12.9382 11.267C13.1446 11.2525 13.3516 11.2503 13.5583 11.2604C13.6418 11.2659 13.7249 11.2755 13.8081 11.2851C14.0536 11.3135 14.3236 11.463 14.4144 11.6688C14.8743 12.7116 15.3205 13.7604 15.7531 14.8149C15.8485 15.0477 15.791 15.3494 15.6094 15.6413C15.5172 15.791 15.3724 16.001 15.2047 16.2158C15.0303 16.4388 14.6551 16.8491 14.6551 16.8491C14.6551 16.8491 14.503 17.0313 14.5603 17.2581C14.5827 17.3438 14.6539 17.4687 14.7184 17.5737C14.7542 17.6318 14.7874 17.6837 14.8089 17.7197C15.2034 18.3784 15.7338 19.0463 16.3816 19.6742C16.5672 19.8541 16.7473 20.0377 16.9409 20.2082C17.6629 20.8448 18.4796 21.3649 19.3618 21.7502L19.3696 21.7537C19.4999 21.8098 19.5668 21.8405 19.7575 21.9215C19.8537 21.9622 19.9521 21.9973 20.0531 22.024C20.0896 22.0335 20.1271 22.0389 20.1647 22.0416C20.414 22.0565 20.5581 21.8966 20.6196 21.8231C21.735 20.4718 21.8371 20.3836 21.8448 20.3843V20.3867C21.9914 20.2323 22.2219 20.1786 22.4275 20.1912C22.5214 20.197 22.6149 20.215 22.7003 20.254C23.5201 20.628 24.8606 21.2114 24.8606 21.2114L25.7571 21.6144C25.9072 21.6868 26.0443 21.8575 26.0509 22.0234C26.0549 22.1265 26.066 22.293 26.0292 22.5976C25.9809 22.9965 25.8596 23.4767 25.739 23.7283C25.6543 23.9048 25.5445 24.0615 25.4168 24.194C25.2437 24.3738 25.1151 24.4829 24.907 24.638C24.7803 24.7324 24.7146 24.7768 24.7146 24.7768C24.5005 24.9118 24.3798 24.9794 24.1246 25.1152C23.7278 25.3265 23.2893 25.448 22.8402 25.4711C22.554 25.4858 22.2684 25.5065 21.9825 25.491C21.9698 25.4903 21.1065 25.3577 21.1065 25.3577C18.9144 24.7811 16.8871 23.701 15.1859 22.2031C14.8381 21.8969 14.5156 21.5656 14.1863 21.2379C12.8157 19.8734 11.7781 18.402 11.1488 17.0102C10.8386 16.3238 10.6421 15.5888 10.639 14.8324C10.6333 13.8967 10.9396 12.9858 11.5096 12.2437C11.622 12.0975 11.7286 11.9457 11.9126 11.772C12.1074 11.588 12.2315 11.4892 12.365 11.4209C12.5431 11.3298 12.7387 11.2811 12.9382 11.267Z" fill="white"/>
</g>
</svg>
