<svg width="61" height="60" viewBox="0 0 61 60" fill="none" xmlns="http://www.w3.org/2000/svg">
<g id="Group 124">
<rect id="Rectangle 55" width="61" height="60" rx="8" fill="white"/>
<path id="Vector" d="M48.4936 18.9255C48.3183 18.2367 47.8227 17.717 47.255 17.5567C46.2465 17.2739 41.35 16.625 31 16.625C20.65 16.625 15.7545 17.2742 14.7419 17.5575C14.1796 17.7147 13.684 18.2343 13.5065 18.9255C13.2562 19.907 12.6 24.0156 12.6 30.5C12.6 36.9842 13.2562 41.0931 13.5072 42.0773C13.6816 42.7634 14.1773 43.283 14.7425 43.4426C15.7545 43.7259 20.65 44.375 31 44.375C41.35 44.375 46.2465 43.7261 47.258 43.4426C47.8204 43.2853 48.316 42.7657 48.4936 42.0745C48.7438 41.0931 49.4 36.975 49.4 30.5C49.4 24.025 48.7438 19.907 48.4936 18.9255ZM52.9494 17.777C54 21.8975 54 30.5 54 30.5C54 30.5 54 39.1025 52.9494 43.2229C52.364 45.5019 50.6558 47.2929 48.4906 47.8983C44.561 49 31 49 31 49C31 49 17.447 49 13.5094 47.8983C11.3361 47.2846 9.62796 45.4933 9.05055 43.2229C8 39.1025 8 30.5 8 30.5C8 30.5 8 21.8975 9.05055 17.777C9.63597 15.4982 11.3441 13.707 13.5094 13.1016C17.447 12 31 12 31 12C31 12 44.561 12 48.4906 13.1016C50.6639 13.7155 52.3721 15.5066 52.9494 17.777ZM26.4 38.5938V22.4062L40.2 30.5L26.4 38.5938Z" fill="#021A00"/>
</g>
</svg>
